<svg width="1728" height="1117" viewBox="0 0 1728 1117" fill="none" xmlns="http://www.w3.org/2000/svg">
<g clip-path="url(#clip0_1_2)">
<rect width="1728" height="1117" fill="white"/>
<path d="M1728 0H0V1117H1728V0Z" fill="#7A7ADE"/>
<path d="M308.085 28.9999C370.557 28.9999 454.308 49.1057 454.308 73.9074C454.308 98.7092 403.664 118.815 341.192 118.815C278.719 118.815 228.076 98.7092 228.076 73.9074C228.076 49.1057 245.612 28.9999 308.085 28.9999Z" fill="#7A7ADE"/>
<path d="M1090 60.3227C1059.27 60.3227 1028.54 60.3227 997.808 60.3227C973.152 60.3227 943.014 55.6055 924.054 82.2432C909.957 102.05 898.425 127.599 886.468 149.997C870.776 179.395 851.313 191.635 827.45 204.688C797.026 221.329 764.606 217.752 732.579 217.752C703.413 217.752 675.001 225.509 649.054 245.761C632.46 258.714 617.177 288.981 610.681 313.626C601.105 349.952 601.574 388.056 595 425" stroke="#8080E5" stroke-width="50" stroke-linecap="round"/>
<path d="M1191 140.323C1160.27 140.323 1129.54 140.323 1098.81 140.323C1074.15 140.323 1044.01 135.605 1025.05 162.243C1010.96 182.05 999.425 207.599 987.468 229.997C971.776 259.395 952.313 271.635 928.45 284.688C898.026 301.329 865.606 297.752 833.579 297.752C804.413 297.752 776.001 305.509 750.054 325.761C733.46 338.714 718.177 368.981 711.681 393.626C702.105 429.952 702.574 468.056 696 505" stroke="#8080E5" stroke-width="50" stroke-linecap="round"/>
<path d="M1230 780.677C1199.27 780.677 1168.54 780.677 1137.81 780.677C1113.15 780.677 1083.01 785.395 1064.05 758.757C1049.96 738.95 1038.43 713.401 1026.47 691.003C1010.78 661.605 991.313 649.365 967.45 636.312C937.026 619.671 904.606 623.248 872.579 623.248C843.413 623.248 815.001 615.491 789.054 595.239C772.46 582.286 740.497 619.884 734 595.239C724.424 558.913 606.074 580.444 599.5 543.5" stroke="#8080E5" stroke-width="50" stroke-linecap="round"/>
<path d="M977.246 862.938C977.246 840.568 980.474 815.864 974.894 794.053C969.152 771.606 956.705 747.161 939.443 731.468C922.253 715.84 894.703 713.356 872.911 709.543C852.804 706.024 827.474 707.181 807.89 712.567C784.051 719.122 761.859 731.398 738.333 738.945C722.243 744.106 695.108 754.161 679.024 744.657C671.402 740.153 666.542 733.851 661.215 726.848C650.917 713.308 640.509 700.129 630.973 686.021C617.35 665.866 599.711 649.382 582.585 632.257C579.461 629.133 573.407 625.22 572 621" stroke="#8080E5" stroke-width="50" stroke-linecap="round"/>
<path d="M844.103 1050.38C833.981 1030.43 825.683 1006.94 810.838 990.014C795.561 972.594 773.401 956.426 750.907 950.241C728.506 944.082 702.813 954.332 681.654 960.791C662.131 966.751 640.065 979.243 625.037 992.907C606.744 1009.54 592.508 1030.53 574.942 1047.9C562.928 1059.78 543.279 1081.03 524.635 1079.83C515.8 1079.26 508.615 1075.84 500.696 1072.01C485.386 1064.59 470.141 1057.55 455.254 1049.28C433.986 1037.47 410.798 1030.75 387.777 1023.23C383.577 1021.85 376.408 1021.1 373.244 1017.98" stroke="#8080E5" stroke-width="50" stroke-linecap="round"/>
<path d="M1123 580C1110.24 580 1097.49 580 1084.74 580C1050.8 580 1010.82 568.629 982.309 555.685C948.059 540.132 914.169 524.576 881.516 507.306C862.06 497.016 840.644 487.91 826.92 473.063C809.557 454.28 816.402 424.026 836.486 408.194C869.106 382.479 913.306 381.813 959.211 383.458C1008.5 385.224 1066.85 392.029 1098.5 358.133C1110.04 345.772 1112.5 332.383 1112.5 318" stroke="#8080E5" stroke-width="50" stroke-linecap="round"/>
<path d="M273.215 44.5645C273.215 57.373 273.012 70.1995 273.215 83.0061C273.459 98.3701 284.053 122.474 297.928 130.953C309.625 138.101 321.376 138.687 334.891 137.606C348.316 136.532 357.697 124.629 368.686 118.28C394.234 103.518 426.063 101.765 442.295 129.157C448.542 139.699 450.661 146.639 449.899 158.833C449.089 171.8 443.58 193.611 430.995 200.443C421.113 205.808 410.635 208.858 400.58 213.75C391.086 218.369 377.291 221.279 369.214 228.113C349.978 244.389 333.852 273.315 340.171 299.293C343.603 313.399 359.857 329.751 369.742 339.636C382.299 352.193 401.027 356.389 417.688 361.075C440.462 367.48 460.88 371.53 484.222 371.53" stroke="#8080E5" stroke-width="50" stroke-linecap="round"/>
<path d="M406.283 40.7627C460.992 40.7627 533.522 59.7915 556.459 115.323C570.368 148.999 561.329 189.605 552.234 223.255C548.9 235.592 539.797 248.241 533.225 258.951C528.702 266.322 518.951 286.265 510.836 287.888" stroke="#8080E5" stroke-width="50" stroke-linecap="round"/>
<path d="M1509.41 833C1518.86 886.887 1507.73 941.315 1457 973.5C1426.23 993.017 1389.59 1011.43 1354.87 1008.28C1342.15 1007.13 1328.12 1000.35 1316.43 995.725C1308.39 992.544 1287.06 986.384 1284.06 978.672" stroke="#8080E5" stroke-width="50" stroke-linecap="round"/>
<path d="M1347 1215.65C1351.47 1161.12 1375.98 1111.27 1433.2 1092.95C1467.9 1081.83 1508.01 1073.28 1540.8 1085.09C1552.82 1089.42 1564.69 1099.53 1574.83 1106.95C1581.8 1112.06 1600.88 1123.41 1601.84 1131.63" stroke="#8080E5" stroke-width="50" stroke-linecap="round"/>
<path d="M603.982 52.1685C603.982 86.7516 644.936 97.9807 666.714 115.323C688.985 133.057 711.679 143.616 737.472 125.884C768.252 104.723 807.045 96.6873 835.9 73.079" stroke="#8080E5" stroke-width="50" stroke-linecap="round"/>
<path d="M1542.2 46C1519.16 71.7912 1542.22 107.449 1546.91 134.891C1551.7 162.953 1561.59 185.947 1592.64 189.906C1629.69 194.63 1663.98 214.481 1701.22 216.098" stroke="#8080E5" stroke-width="50" stroke-linecap="round"/>
<path d="M267.512 871.483C271.058 870.597 272.347 847.043 272.793 843.391C274.607 828.513 277.109 813.766 278.496 798.824C281.346 768.098 285.282 736.376 291.169 706.099C295.174 685.498 298.23 644.021 320.739 634.813C356.205 620.304 362.006 675.202 366.785 698.918C375.277 741.063 374.789 785.856 385.794 827.338C390.108 843.599 406.859 891.251 432.896 882.572C447.765 877.616 450.94 838.144 452.75 825.966C456.241 802.483 459.416 778.871 462.361 755.313C465.496 730.233 468.977 705.002 470.915 679.803C471.599 670.909 474.717 661.666 474.717 652.872" stroke="#8080E5" stroke-width="50" stroke-linecap="round"/>
<path d="M835.9 873.384C821.323 873.384 804.983 863.334 791.755 857.754C774.419 850.44 758.331 843.86 739.373 841.49C706.355 837.363 670.005 833.462 636.721 837.688C605.861 841.607 586.951 817.587 570.188 793.966C553.103 769.892 544.511 741.951 537.449 713.703" stroke="#8080E5" stroke-width="50" stroke-linecap="round"/>
<path d="M1577.21 603.259C1577.93 588.699 1588.77 572.873 1594.99 559.936C1603.15 542.98 1610.51 527.235 1613.81 508.417C1619.56 475.642 1625.24 439.528 1622.66 406.076C1620.26 375.061 1645.18 357.355 1669.6 341.774C1694.49 325.893 1722.81 318.686 1751.38 313.022" stroke="#8080E5" stroke-width="50" stroke-linecap="round"/>
<path d="M1211.45 1063.68C1196.87 1063.68 1180.53 1053.63 1167.31 1048.05C1149.97 1040.74 1133.88 1034.16 1114.92 1031.79C1081.91 1027.66 1045.56 1023.76 1012.27 1027.98C981.412 1031.9 962.502 1007.88 945.739 984.263C928.654 960.189 920.062 932.248 913 904" stroke="#8080E5" stroke-width="50" stroke-linecap="round"/>
<path d="M63.1718 873.481C67.6764 887.344 63.1677 905.99 61.9484 920.295C60.3495 939.043 59.063 956.376 62.6674 975.139C68.9455 1007.82 76.4682 1043.59 90.7726 1073.94C104.036 1102.08 87.0353 1127.49 69.7504 1150.73C52.1342 1174.42 28.2158 1191.22 3.53265 1206.67" stroke="#8080E5" stroke-width="50" stroke-linecap="round"/>
<path d="M273.172 963.481C277.676 977.344 273.168 995.99 271.948 1010.29C270.35 1029.04 269.063 1046.38 272.667 1065.14C278.945 1097.82 286.468 1133.59 300.773 1163.94C314.036 1192.08 297.035 1217.49 279.75 1240.73C262.134 1264.42 238.216 1281.22 213.533 1296.67" stroke="#8080E5" stroke-width="50" stroke-linecap="round"/>
<path d="M297.927 378.738C293.193 379.33 296.027 437.898 296.027 443.371C296.027 455.715 295.584 470.867 302.152 481.813C309.16 493.492 323.453 497.61 335.947 500.822C357.62 506.395 380.277 490.895 402.48 490.895C425.986 490.895 432.673 526.009 442.401 542.221" stroke="#8080E5" stroke-width="50" stroke-linecap="round"/>
<path d="M151.355 136.918C147.559 134.029 108.601 177.852 104.771 181.762C96.1336 190.58 85.2145 201.095 82.2472 213.51C79.0813 226.758 86.4105 239.701 93.0885 250.738C104.672 269.885 131.704 274.666 147.565 290.203C164.358 306.651 144.564 336.415 140.169 354.804" stroke="#8080E5" stroke-width="50" stroke-linecap="round"/>
<path d="M277.918 559.131C275.963 559.028 251.538 552.138 253.628 550.049C253.692 549.985 268.657 556.382 270.314 556.808C288.738 561.545 306.408 564.834 325.442 564.834" stroke="#8080E5" stroke-width="50" stroke-linecap="round"/>
<path d="M524.417 930.082C522.462 929.979 498.037 923.089 500.127 921C500.191 920.936 515.156 927.333 516.813 927.759C535.237 932.496 552.907 935.785 571.941 935.785" stroke="#8080E5" stroke-width="50" stroke-linecap="round"/>
<path d="M1114.42 959.082C1112.46 958.979 1088.04 952.089 1090.13 950C1090.19 949.936 1105.16 956.333 1106.81 956.759C1125.24 961.496 1142.91 964.785 1161.94 964.785" stroke="#8080E5" stroke-width="50" stroke-linecap="round"/>
<path d="M1601.42 1006.08C1599.46 1005.98 1575.04 999.089 1577.13 997C1577.19 996.936 1592.16 1003.33 1593.81 1003.76C1612.24 1008.5 1629.91 1011.79 1648.94 1011.79" stroke="#8080E5" stroke-width="50" stroke-linecap="round"/>
<path d="M1648.03 70.0315C1647.52 68.1417 1646.45 42.7861 1649.09 44.1205C1649.17 44.1615 1647.75 60.375 1647.87 62.0822C1649.1 81.065 1651.49 98.8802 1657.42 116.967" stroke="#8080E5" stroke-width="50" stroke-linecap="round"/>
<path d="M256.106 303.096C250.343 302.375 251.458 224.629 265.611 217.552" stroke="#8080E5" stroke-width="50" stroke-linecap="round"/>
<path d="M1125.6 674.375C1179.44 674.375 1234.85 678.497 1288.29 671.732C1309.71 669.02 1337.48 655.785 1358.11 668.007C1396.66 690.851 1391.63 724.812 1391.63 766.178C1391.63 802.31 1397.59 855.072 1357.03 870.717C1322.11 884.185 1281.37 881.141 1244.68 879.729C1214.12 878.554 1183.09 875.783 1152.51 873.841C1131.04 872.478 1106.58 870.765 1085.46 875.524C1079.14 876.948 1073.61 877.687 1067.2 877.687" stroke="#8080E5" stroke-width="50" stroke-linecap="round"/>
<path d="M1281.32 581.371C1230 581.371 1184.57 543.227 1143.86 516.965C1130.61 508.417 1112.67 500.588 1102.65 488.246C1100.68 485.826 1074.91 463.747 1076.81 462.892C1084.99 459.212 1100.86 463.625 1109.25 464.094C1137.07 465.649 1164.76 467.532 1192.53 469.982C1230.59 473.34 1271.66 480.86 1309.92 477.071C1340.4 474.054 1382.98 439.671 1382.98 406.177" stroke="#8080E5" stroke-width="50" stroke-linecap="round"/>
<path d="M1322.42 367.245C1306.88 367.245 1283.7 371.974 1272.67 358.113C1267.25 351.299 1263.9 342.638 1259.21 335.282C1252.66 324.989 1243.92 316.45 1237.59 305.723C1226.3 286.612 1213.26 255.038 1190 248.286C1169.18 242.24 1147.13 241.797 1125.6 241.797" stroke="#8080E5" stroke-width="50" stroke-linecap="round"/>
<path d="M1324.58 256.938C1307.32 255.212 1311.6 215.531 1311.6 204.548C1311.6 183.046 1311.68 161.722 1316.41 140.622C1319.52 126.743 1324.38 113.414 1324.58 99.047C1325.02 67.2413 1304.94 54.4154 1276.52 43.2925C1249.56 32.7454 1221.67 34.4619 1194.81 25.5088" stroke="#8080E5" stroke-width="50" stroke-linecap="round"/>
<path d="M1090 60.3227C1059.27 60.3227 1028.54 60.3227 997.808 60.3227C973.152 60.3227 943.014 55.6055 924.054 82.2432C909.957 102.05 898.425 127.599 886.468 149.997C870.776 179.395 851.313 191.635 827.45 204.688C797.026 221.329 764.606 217.752 732.579 217.752C703.413 217.752 675.001 225.509 649.054 245.761C632.46 258.714 617.177 288.981 610.681 313.626C601.105 349.952 601.574 388.056 595 425" stroke="#8080E5" stroke-width="50" stroke-linecap="round"/>
<path d="M1191 140.323C1160.27 140.323 1129.54 140.323 1098.81 140.323C1074.15 140.323 1044.01 135.605 1025.05 162.243C1010.96 182.05 999.425 207.599 987.468 229.997C971.776 259.395 952.313 271.635 928.45 284.688C898.026 301.329 865.606 297.752 833.579 297.752C804.413 297.752 776.001 305.509 750.054 325.761C733.46 338.714 718.177 368.981 711.681 393.626C702.105 429.952 702.574 468.056 696 505" stroke="#8080E5" stroke-width="50" stroke-linecap="round"/>
<path d="M183 44.3228C152.269 44.3228 121.539 44.3228 90.808 44.3228C66.152 44.3228 36.014 39.6048 17.054 66.2428C2.95702 86.0498 -8.57498 111.599 -20.532 133.997C-36.224 163.395 -55.687 175.635 -79.55 188.688C-109.974 205.329 -142.394 201.752 -174.421 201.752C-203.587 201.752 -231.999 209.509 -257.946 229.761C-274.54 242.714 -289.823 272.981 -296.319 297.626C-305.895 333.952 -305.426 372.056 -312 409" stroke="#8080E5" stroke-width="50" stroke-linecap="round"/>
<path d="M1230 780.677C1199.27 780.677 1168.54 780.677 1137.81 780.677C1113.15 780.677 1083.01 785.395 1064.05 758.757C1049.96 738.95 1038.43 713.401 1026.47 691.003C1010.78 661.605 991.313 649.365 967.45 636.312C937.026 619.671 904.606 623.248 872.579 623.248C843.413 623.248 815.001 615.491 789.054 595.239C772.46 582.286 740.497 619.884 734 595.239C724.424 558.913 606.074 580.444 599.5 543.5" stroke="#8080E5" stroke-width="50" stroke-linecap="round"/>
<path d="M1522.02 700.308C1506.83 673.597 1491.63 646.886 1476.44 620.174C1464.25 598.742 1445.25 574.879 1459.03 545.228C1469.27 523.181 1485.78 500.525 1499.33 479.057C1517.13 450.882 1518.15 427.913 1517.69 400.717C1517.11 366.044 1497.98 339.633 1482.14 311.794C1467.72 286.443 1460.41 257.911 1465.19 225.345C1468.24 204.517 1419.76 195.324 1437.97 177.491C1464.81 151.206 1387.58 58.9806 1416.44 35" stroke="#8080E5" stroke-width="50" stroke-linecap="round"/>
<path d="M1123 580C1110.24 580 1097.49 580 1084.74 580C1050.8 580 1010.82 568.629 982.309 555.685C948.059 540.132 914.169 524.576 881.516 507.306C862.06 497.016 840.644 487.91 826.92 473.063C809.557 454.28 816.402 424.026 836.486 408.194C869.106 382.479 913.306 381.813 959.211 383.458C1008.5 385.224 1066.85 392.029 1098.5 358.133C1110.04 345.772 1112.5 332.383 1112.5 318" stroke="#8080E5" stroke-width="50" stroke-linecap="round"/>
<path d="M1125.6 674.375C1179.44 674.375 1234.85 678.497 1288.29 671.732C1309.71 669.02 1337.48 655.785 1358.11 668.007C1396.66 690.851 1391.63 724.812 1391.63 766.178C1391.63 802.31 1397.59 855.072 1357.03 870.717C1322.11 884.185 1281.37 881.141 1244.68 879.729C1214.12 878.554 1183.09 875.783 1152.51 873.841C1131.04 872.478 1106.58 870.765 1085.46 875.524C1079.14 876.948 1073.61 877.687 1067.2 877.687" stroke="#8080E5" stroke-width="50" stroke-linecap="round"/>
<path d="M1875.67 900.325C1821.83 900.937 1766.38 897.445 1713.02 904.817C1691.63 907.772 1664.01 921.321 1643.25 909.335C1604.44 886.93 1609.08 852.914 1608.61 811.551C1608.2 775.421 1601.64 722.73 1642.02 706.625C1676.79 692.762 1717.56 695.342 1754.26 696.338C1784.83 697.165 1815.89 699.584 1846.49 701.178C1867.97 702.297 1892.46 703.732 1913.52 698.733C1919.82 697.238 1925.34 696.436 1931.76 696.363" stroke="#8080E5" stroke-width="50" stroke-linecap="round"/>
<path d="M-30.9788 1005.04C-33.3167 951.465 -31.6045 896.147 -40.6834 843.264C-44.3229 822.067 -58.7511 795.01 -47.4364 773.949C-26.288 734.592 7.85911 738.117 49.1858 736.314C85.2834 734.738 137.737 726.508 155.128 766.187C170.099 800.348 168.827 841.021 169.009 877.593C169.162 908.054 167.741 939.053 167.129 969.566C166.699 990.988 166.05 1015.41 171.722 1036.21C173.419 1042.44 174.397 1047.91 174.676 1054.29" stroke="#8080E5" stroke-width="50" stroke-linecap="round"/>
<path d="M1281.32 581.371C1230 581.371 1184.57 543.227 1143.86 516.965C1130.61 508.417 1112.67 500.588 1102.65 488.246C1100.68 485.826 1074.91 463.747 1076.81 462.892C1084.99 459.212 1100.86 463.625 1109.25 464.094C1137.07 465.649 1164.76 467.532 1192.53 469.982C1230.59 473.34 1271.66 480.86 1309.92 477.071C1340.4 474.054 1382.98 439.671 1382.98 406.177" stroke="#8080E5" stroke-width="50" stroke-linecap="round"/>
<path d="M183.847 440.224C188.595 491.324 154.817 540.088 132.434 583.052C125.148 597.035 119.012 615.62 107.651 626.747C105.423 628.929 85.8224 656.627 84.7955 654.817C80.3745 647.012 83.3008 630.805 82.9909 622.4C81.9656 594.556 81.2791 566.812 81.1499 538.938C80.9726 500.73 84.661 459.141 77.3488 421.395C71.525 391.325 33.3504 352.109 -3.66422e-06 355.207" stroke="#8080E5" stroke-width="50" stroke-linecap="round"/>
<path d="M1322.42 367.245C1306.88 367.245 1283.7 371.974 1272.67 358.113C1267.25 351.299 1263.9 342.638 1259.21 335.282C1252.66 324.989 1243.92 316.45 1237.59 305.723C1226.3 286.612 1213.26 255.038 1190 248.286C1169.18 242.24 1147.13 241.797 1125.6 241.797" stroke="#8080E5" stroke-width="50" stroke-linecap="round"/>
<path d="M1324.58 256.938C1307.32 255.212 1311.6 215.531 1311.6 204.548C1311.6 183.046 1311.68 161.722 1316.41 140.622C1319.52 126.743 1324.38 113.414 1324.58 99.047C1325.02 67.2413 1304.94 54.4154 1276.52 43.2925C1249.56 32.7454 1221.67 34.4619 1194.81 25.5088" stroke="#8080E5" stroke-width="50" stroke-linecap="round"/>
<path d="M504.848 488.367C504.848 484.695 505.707 479.83 503.646 476.591C503.08 475.701 499.179 469.238 498.479 472.386C495.556 485.54 499.49 486.232 509.053 491.611C527.16 501.796 513.551 460.119 504.848 481.878" stroke="#8080E5" stroke-width="50" stroke-linecap="round"/>
<path d="M727.316 1069.84C727.316 1066.17 728.175 1061.3 726.114 1058.06C725.548 1057.17 721.647 1050.71 720.947 1053.86C718.024 1067.01 721.958 1067.7 731.521 1073.08C749.628 1083.27 736.019 1041.59 727.316 1063.35" stroke="#8080E5" stroke-width="50" stroke-linecap="round"/>
</g>
<defs>
<clipPath id="clip0_1_2">
<rect width="1728" height="1117" fill="white"/>
</clipPath>
</defs>
</svg>
